<svg width="18" height="19" viewBox="0 0 18 19" fill="none" xmlns="http://www.w3.org/2000/svg">
  <circle cx="9" cy="9.37822" r="9" fill="#F68933"/>
  <g clip-path="url(#clip0)">
  <path d="M8.99996 10.7282C9.74554 10.7282 10.35 10.1238 10.35 9.37823C10.35 8.63264 9.74554 8.02823 8.99996 8.02823C8.25437 8.02823 7.64996 8.63264 7.64996 9.37823C7.64996 10.1238 8.25437 10.7282 8.99996 10.7282Z" fill="white"/>
  <path fill-rule="evenodd" clip-rule="evenodd" d="M2.55896 9.37825C3.41908 6.63969 5.97752 4.65323 8.99993 4.65323C12.0223 4.65323 14.5808 6.63967 15.4409 9.3782C14.5808 12.1168 12.0223 14.1032 8.99992 14.1032C5.97753 14.1032 3.41909 12.1168 2.55896 9.37825ZM11.6999 9.37823C11.6999 10.8694 10.4911 12.0782 8.99996 12.0782C7.50879 12.0782 6.29996 10.8694 6.29996 9.37823C6.29996 7.88706 7.50879 6.67823 8.99996 6.67823C10.4911 6.67823 11.6999 7.88706 11.6999 9.37823Z" fill="white"/>
  </g>
  <defs>
  <clipPath id="clip0">
  <rect width="13.5" height="13.5" fill="white" transform="translate(2.25 2.62822)"/>
  </clipPath>
  </defs>
</svg>
