<svg width="442" height="81" viewBox="0 0 442 81" fill="none" xmlns="http://www.w3.org/2000/svg">
<g clip-path="url(#clip0)">
<g clip-path="url(#clip1)">
<path d="M0.340153 43.0824C0.340153 36.4182 0.289668 28.1746 0.25 21.4996C0.971228 21.4996 18.003 21.5718 26.0952 21.6186C27.9909 21.6509 29.8594 22.0745 31.5837 22.8628C34.9374 24.3377 36.6972 27.612 36.416 31.2723C35.9508 37.4784 32.3446 39.3861 27.4619 40.4968C26.2142 40.7672 26.2286 40.623 26.4378 41.3658C26.5748 41.8491 26.5748 41.8491 27.5485 41.9212C29.5692 42.0121 31.5672 42.386 33.4842 43.0319C38.2623 44.7953 40.5306 48.2932 40.3034 53.3743C39.9788 60.6118 35.1899 64.4091 27.9451 64.6471C19.0704 64.9392 1.33184 64.7661 0.340153 64.7553V43.0824ZM13.0951 50.8428C13.0951 52.1121 13.0951 53.3671 13.0951 54.6581C13.0951 55.2134 13.2032 55.5921 13.8848 55.574C16.8743 55.5019 19.8746 55.7796 22.8461 55.2964C25.3704 54.8853 26.6397 53.3995 26.6686 50.8969C26.6974 48.3942 25.5326 47.0419 22.8352 46.5984C19.8602 46.1151 16.8635 46.483 13.8812 46.3676C13.1924 46.3387 13.0879 46.7282 13.0915 47.2871C13.1059 48.4735 13.0951 49.6564 13.0951 50.8428ZM13.0951 34.2978C13.0951 35.3797 13.0951 36.4867 13.0951 37.5794C13.0951 38.1203 13.1672 38.517 13.8632 38.5098C16.1026 38.4737 18.3492 38.5819 20.5778 38.4232C22.9182 38.2718 24.2993 36.4363 24.2272 33.9444C24.1587 31.5608 22.9687 30.3816 20.347 30.2878C18.2879 30.2121 16.2216 30.313 14.1589 30.2481C13.2357 30.2193 13.0374 30.6087 13.077 31.4093C13.1311 32.3685 13.0951 33.335 13.0951 34.305V34.2978Z" fill="#1E2E3A"/>
<path d="M135.394 41.8778C138.913 41.8778 147.344 41.8598 147.344 41.8598C147.344 41.8598 147.344 42.0365 147.344 43.14C147.298 49.9411 147.308 57.8242 147.344 64.6217C145.945 64.6217 138.372 64.5712 136.995 64.6217C136.822 61.7837 136.634 57.8818 136.443 55.0402C136.346 53.5112 136.266 51.9786 136.176 50.4496C136.155 50.1106 136.23 49.6851 135.704 49.6743C135.271 49.6743 135.26 50.0746 135.224 50.345C135.078 51.7366 134.847 53.1179 134.532 54.4813C134.115 56.0936 133.51 57.6513 132.729 59.1224C129.876 64.427 125.095 65.9344 119.509 65.6855C109.412 65.2384 103.728 58.2713 102.365 49.1694C101.644 44.431 101.748 39.7502 103.126 35.1307C105.081 28.5351 109.375 24.1284 115.903 22.0441C122.466 19.8994 129.545 19.9184 136.097 22.0981C142.465 24.1861 145.834 28.802 146.71 35.3687C146.791 35.828 146.791 36.2979 146.71 36.7571L134.492 37.875C134.492 37.875 134.622 37.7163 134.492 37.0023C134.222 35.2977 133.471 33.7054 132.329 32.4117C128.362 28.0194 120.205 29.1409 117.309 34.4708C116.324 36.3874 115.746 38.4868 115.61 40.6373C115.297 44.0199 115.362 47.3916 116.389 50.666C117.514 54.236 120.356 56.2338 124.247 56.3168C127.695 56.3853 130.644 54.2757 131.899 50.9076C132.282 49.8798 132.105 49.512 130.947 49.5481C128.881 49.6166 123.468 49.5841 123.468 49.5841C123.468 49.5841 123.634 43.5943 123.566 41.8417C124.759 41.748 131.827 41.8778 135.394 41.8778Z" fill="#1E2E3A"/>
<path d="M97.7995 42.801C97.7995 49.6887 97.9762 63.8464 97.8247 64.7588C95.185 64.6902 87.5544 64.7588 87.5544 64.7588C87.5832 64.4481 87.5832 64.1354 87.5544 63.8248C87.4607 61.8594 87.2624 59.8941 87.1073 57.9287C87.0748 57.5429 87.1289 57.121 86.5159 57.1246C86.3218 57.0911 86.1223 57.1334 85.9586 57.2428C85.7948 57.3522 85.6793 57.5203 85.636 57.7124C85.2775 58.9812 84.7082 60.1807 83.9519 61.2608C81.0382 65.2276 76.8622 66.0678 72.3329 65.5882C66.7506 65.0184 63.1409 61.8306 61.5506 56.5404C59.816 50.7706 59.8918 44.9358 62.0735 39.2742C65.6544 29.974 75.8994 29.6458 80.8434 33.0392C82.8016 34.3807 84.0204 36.2847 84.8751 38.4484C85.0193 38.809 85.1528 39.1696 85.2682 39.5627C85.2874 39.6602 85.3265 39.7528 85.3832 39.8345C85.4399 39.9162 85.5129 39.9853 85.5975 40.0374C85.6822 40.0896 85.7767 40.1236 85.8752 40.1375C85.9736 40.1514 86.0739 40.1448 86.1697 40.118C86.6745 40.0315 86.6024 39.624 86.5736 39.2886C86.487 38.2825 86.4041 37.2764 86.2598 36.2811C85.5602 31.3984 85.6504 20.5728 85.6504 20.5728H97.8175C97.8175 20.5728 97.7959 35.787 97.7995 42.801ZM73.2453 48.3256C73.2453 51.6865 73.6059 53.5112 74.4497 55.1196C75.3945 56.901 76.9524 57.7088 78.8781 57.6655C80.8038 57.6222 82.2895 56.699 82.9999 54.8888C84.5758 50.8571 84.6551 46.7677 83.0396 42.7325C82.3183 40.951 81.0093 39.8295 78.9394 39.7466C76.718 39.6564 75.2828 40.7527 74.3379 42.6315C73.502 44.4079 73.1262 46.366 73.2453 48.3256Z" fill="#1E2E3A"/>
<path d="M329.216 47.6478C329.216 49.4509 329.195 51.254 329.216 53.057C329.219 53.7122 329.306 54.3643 329.476 54.9971C329.689 55.7184 330.222 56.2521 331.034 56.0573C331.502 55.9663 331.951 55.7955 332.361 55.5525C332.747 57.2582 333.367 61.7911 333.803 63.486C333.443 63.8466 328.033 66.3709 323.767 65.4044C320.58 64.6399 319.115 62.0976 319.48 58.1381C319.512 57.7775 319.739 57.3555 319.166 57.1248C318.593 56.894 318.264 57.3051 318.109 57.846C316.443 63.706 311.979 65.6677 306.451 65.7038C303.111 65.7254 299.96 65.0402 297.63 62.3645C293.757 57.9181 295.066 50.7311 300.212 47.8462C303.202 46.1693 306.447 45.4914 309.804 45.3219C311.817 45.2281 313.851 45.0983 315.856 45.5166C316.75 45.7041 317.186 45.3723 317.056 44.4131C317.038 44.1069 317.038 43.7998 317.056 43.4936C317.006 41.1748 315.949 39.7468 313.988 39.3321C312.993 39.0991 311.948 39.2114 311.026 39.6505C310.103 40.0895 309.357 40.8292 308.91 41.7482C308.55 42.4694 308.214 43.27 307.89 43.8794C304.969 43.2916 299.559 42.5596 297.035 42.2098C297.023 41.9098 297.037 41.6093 297.078 41.3118C297.886 37.9473 299.924 35.5024 302.848 33.8111C307.197 31.2868 311.961 30.7927 316.869 31.2615C319.642 31.5284 322.336 32.109 324.683 33.7462C327.608 35.7836 328.931 38.6938 329.148 42.1376C329.263 43.9732 329.169 45.8195 329.169 47.6622L329.216 47.6478ZM315.199 49.5843C313.396 49.7177 311.593 49.7971 310.05 50.9006C309.304 51.4116 308.725 52.1304 308.385 52.9677C308.044 53.805 307.957 54.7239 308.135 55.6102C308.261 56.2605 308.582 56.8568 309.057 57.319C309.531 57.7812 310.136 58.0871 310.789 58.1958C311.708 58.3186 312.643 58.1642 313.473 57.7524C314.304 57.3406 314.993 56.69 315.452 55.8842C316.224 54.5114 316.688 52.9867 316.811 51.4162C316.981 49.6889 316.912 49.6204 315.199 49.5987V49.5843Z" fill="#1E2E3A"/>
<path d="M381.476 31.0881C385.638 31.1422 388.952 31.6579 392.064 33.14C396.323 35.1703 398.916 38.5204 399.904 43.093C400.727 46.8369 400.631 50.7244 399.626 54.4235C398.234 59.555 394.88 62.9736 389.828 64.5675C384.565 66.3079 378.865 66.1985 373.673 64.2574C368.397 62.2957 365.335 58.4659 364.376 52.9522C363.83 49.8321 363.872 46.6377 364.499 43.5329C365.782 37.1392 370.305 32.8119 376.864 31.6327C378.631 31.3225 380.409 31.0304 381.476 31.0881ZM387.812 48.3075C387.841 46.3241 387.693 44.3623 386.947 42.5052C386.099 40.3956 384.487 39.2957 382.295 39.2597C379.991 39.2597 378.267 40.2694 377.513 42.4547C376.17 46.2019 376.195 50.303 377.582 54.034C378.332 56.0787 379.904 57.1677 382.125 57.2002C384.404 57.2326 385.944 56.1183 386.835 54.0628C387.636 52.2381 387.834 50.2908 387.812 48.3075Z" fill="#1E2E3A"/>
<path d="M190.459 48.3869C190.459 43.6413 190.481 38.8956 190.459 34.1499C190.459 33.8939 190.459 32.1954 190.459 31.9357C191.033 32.0439 200.409 32.0439 200.852 31.9357C200.986 33.8578 201.195 37.2151 201.372 39.148C201.408 39.5303 201.35 39.9774 201.909 40.0531C202.468 40.1289 202.648 39.725 202.8 39.2886C203.744 36.5444 205.346 34.3086 207.848 32.7687C211.912 30.2697 218.306 30.5149 221.642 33.3529C223.73 35.1308 224.527 37.601 224.566 40.1649C224.696 47.9722 224.61 57.5862 224.646 65.4079C220.235 65.2384 216.268 65.2384 212.486 65.4079C212.515 59.3532 212.507 51.3692 212.486 45.3145C212.486 43.0138 211.447 41.2864 209.817 40.7491C207.888 40.1072 205.897 40.8609 204.707 42.7109C203.2 45.0549 202.904 47.7198 202.767 50.3992C202.518 54.6977 202.612 61.1094 202.67 65.4079C200.755 65.1843 191.379 65.4656 190.438 65.4079C190.492 60.5216 190.456 53.2552 190.459 48.3869Z" fill="#1E2E3A"/>
<path d="M175.364 51.0483C172.238 51.0483 169.111 51.0483 165.988 51.0483C165.516 51.0483 164.935 50.8319 164.939 51.7695C164.939 55.7362 168.516 58.2605 172.227 56.8938C173.767 56.324 175.602 54.1171 176.23 52.6782C178.393 53.0389 185.605 54.1207 185.966 54.1207C184.787 58.4012 182.086 62.7213 177.957 64.2792C172.685 66.2897 166.868 66.3434 161.56 64.4306C156.774 62.779 153.893 59.3099 152.764 54.4164C151.82 50.5183 151.884 46.4437 152.952 42.5774C154.726 36.2811 160.034 32.062 166.655 31.3551C169.576 31.0414 172.443 31.0558 175.281 31.7771C181.343 33.3241 184.534 37.5289 185.739 43.396C186.179 45.5309 186.316 49.4327 185.955 51.2358C182.796 51.1709 178.53 51.0447 175.364 51.0483ZM169.89 46.2233H175.469C175.508 41.849 174.066 39.3247 170.799 39.2995C168.923 39.1372 166.969 39.7034 165.873 41.3081C165.065 42.4909 164.69 44.7339 164.733 46.2305C166.089 46.2052 168.53 46.2233 169.89 46.2233Z" fill="#1E2E3A"/>
<path d="M360.597 54.1568C361.221 56.4611 362.108 58.8087 362.667 60.9616C362.348 61.401 361.957 61.7827 361.509 62.0903C359.092 63.8722 356.266 65.0202 353.291 65.4296C350.013 65.9092 346.717 65.9381 343.554 64.6002C340.309 63.2154 338.719 60.6334 338.484 57.2292C338.123 51.9354 338.347 46.6236 338.358 41.319C338.358 40.0388 337.997 39.689 336.735 39.7359C335.967 39.6854 335.246 39.6854 333.803 39.6854C333.803 38.4557 333.803 33.5549 333.803 32.1125C334.986 32.1954 337.633 32.0872 338.819 32.1377C339.143 32.183 339.471 32.1174 339.752 31.9517C340.033 31.786 340.25 31.53 340.366 31.2254C341.517 29.0076 342.804 26.8583 343.897 24.6153C344.405 23.5768 345.04 23.1729 346.147 23.3099C347.621 23.4339 349.101 23.4712 350.579 23.4217C350.536 25.6142 350.579 28.8886 350.55 31.0811C350.532 31.8781 350.792 32.163 351.603 32.1377C354.286 32.0981 360.471 31.9971 360.849 32.1125C360.792 33.8651 360.849 38.9641 360.849 39.6854C358.21 39.6313 354.391 39.8008 351.751 39.7503C350.846 39.7323 350.532 39.9775 350.543 40.9223C350.59 45.1306 350.543 49.339 350.575 53.5438C350.575 55.5091 351.527 56.5333 353.489 56.7424C356.176 57.0237 358.372 55.895 360.597 54.1568Z" fill="#1E2E3A"/>
<path d="M44.0141 48.4662C44.0141 43.4644 44.0393 38.4627 44.0141 33.4646C44.0141 32.4765 44.0141 32.0979 44.0141 32.0979H56.2353V33.223C56.2112 43.3563 56.2112 53.4883 56.2353 63.6192C56.2353 64.4341 56.2353 64.7695 56.2353 64.7695C56.2353 64.7695 47.3714 64.7154 44.0285 64.7695C43.9095 64.2178 44.0285 64.4089 44.0285 63.6083C44.0321 58.5525 44.0177 53.5111 44.0141 48.4662Z" fill="#1E2E3A"/>
<path d="M50.0147 28.7481C48.5181 28.7193 47.0216 28.6544 45.59 28.1495C43.9384 27.5617 43.0188 26.4294 42.9106 24.6335C42.8024 22.8377 43.3469 21.2618 45.114 20.5478C46.7148 19.8653 48.4379 19.5158 50.1781 19.5208C51.9184 19.5258 53.6394 19.885 55.2364 20.5766C57.0394 21.3483 57.5768 22.9206 57.4181 24.7994C57.2666 26.5412 56.2822 27.5905 54.7027 28.1495C53.1989 28.6868 51.6086 28.7193 50.0147 28.7481Z" fill="#1E2E3A"/>
<path d="M251.663 50.9905C248.536 50.9905 245.41 50.9905 242.287 50.9905C241.814 50.9905 241.234 50.7742 241.237 51.7118C241.237 55.6785 244.815 58.2028 248.525 56.8361C250.065 56.2627 251.901 54.0594 252.528 52.6169C254.692 52.9775 261.904 54.0594 262.265 54.0594C261.085 58.3434 258.384 62.66 254.255 64.2178C248.984 66.2295 243.167 66.2845 237.858 64.3729C233.073 62.7177 230.192 59.2522 229.063 54.3587C228.113 50.458 228.174 46.3795 229.24 42.5089C231.014 36.2126 236.322 31.9934 242.943 31.2866C245.864 30.9765 248.731 30.9873 251.569 31.7121C257.638 33.2591 260.829 37.4639 262.056 43.3203C262.495 45.4515 262.632 49.3533 262.272 51.1564C259.095 51.1131 254.843 50.9905 251.663 50.9905ZM246.188 46.1691H251.767C251.807 41.7841 250.364 39.2598 247.079 39.2381C245.204 39.0722 243.249 39.642 242.153 41.2467C241.345 42.4296 240.97 44.669 241.014 46.1691C242.388 46.1511 244.829 46.1691 246.188 46.1691Z" fill="#1E2E3A"/>
<path d="M266.744 48.6323C266.744 43.8866 266.769 39.141 266.744 34.3953C266.744 34.1392 266.744 32.4408 266.744 32.1811C267.321 32.2857 276.697 32.2857 277.14 32.1811C277.273 34.1032 277.479 37.4605 277.659 39.3754C277.695 39.7576 277.634 40.2084 278.193 40.2841C278.752 40.3598 278.936 39.9559 279.087 39.5196C280.029 36.7753 281.63 34.5395 284.136 32.9961C286.938 31.2579 292.708 30.5547 295.232 33.079C294.511 36.3246 293.79 40.6519 292.708 45.3399C290.544 43.8974 289.823 43.1762 286.938 43.1762C282.971 43.1762 280.447 45.3399 279.365 50.7491C278.644 55.4371 278.882 61.0302 278.943 65.3251C277.028 65.1015 267.652 65.3828 266.708 65.3251C266.769 60.4568 266.744 53.5006 266.744 48.6323Z" fill="#1E2E3A"/>
<path d="M404.801 48.6321C404.801 43.8864 404.826 39.1407 404.801 34.3951C404.801 34.139 404.801 32.4405 404.801 32.1809C405.378 32.2855 414.754 32.2855 415.197 32.1809C415.331 34.103 415.536 37.4603 415.717 39.3751C415.753 39.7574 415.691 40.2081 416.25 40.2839C416.809 40.3596 416.993 39.9557 417.145 39.5194C418.086 36.7751 419.669 34.5393 422.193 32.9959C425.035 31.2505 430.79 30.5473 433.315 33.0716C432.593 36.3171 431.872 40.6445 430.79 45.3325C428.627 43.89 427.905 43.1688 425.02 43.1688C421.054 43.1688 418.529 45.3325 417.448 50.7417C416.726 55.4297 416.964 61.0228 417.026 65.3177C415.111 65.0941 405.735 65.3754 404.79 65.3177C404.837 60.4566 404.801 53.5004 404.801 48.6321Z" fill="#1E2E3A"/>
</g>
</g>
<defs>
<clipPath id="clip0">
<rect width="441.5" height="80.2727" fill="white" transform="translate(0.25)"/>
</clipPath>
<clipPath id="clip1">
<rect width="433.05" height="46.2956" fill="white" transform="translate(0.25 19.5197)"/>
</clipPath>
</defs>
</svg>
